<mxfile host="app.diagrams.net" modified="2023-05-08T10:49:58.932Z" agent="Mozilla/5.0 (X11; Linux x86_64) AppleWebKit/537.36 (KHTML, like Gecko) Chrome/110.0.0.0 Safari/537.36" etag="5jGsXmoyamUl7dsBL2FQ" version="21.2.7" type="device">
  <diagram name="Страница 1" id="pgUWzlrUVevQ2D5Vvk6Q">
    <mxGraphModel dx="978" dy="591" grid="1" gridSize="10" guides="1" tooltips="1" connect="1" arrows="1" fold="1" page="1" pageScale="1" pageWidth="500" pageHeight="400" math="0" shadow="0">
      <root>
        <mxCell id="0" />
        <mxCell id="1" parent="0" />
        <mxCell id="QktWzPdK9CgGakuP4GfK-3" style="edgeStyle=orthogonalEdgeStyle;rounded=0;orthogonalLoop=1;jettySize=auto;html=1;exitX=0;exitY=0.5;exitDx=0;exitDy=0;startArrow=classic;startFill=1;endArrow=none;endFill=0;" edge="1" parent="1" source="QktWzPdK9CgGakuP4GfK-1">
          <mxGeometry relative="1" as="geometry">
            <mxPoint x="38" y="200" as="targetPoint" />
          </mxGeometry>
        </mxCell>
        <mxCell id="QktWzPdK9CgGakuP4GfK-6" style="edgeStyle=orthogonalEdgeStyle;rounded=0;orthogonalLoop=1;jettySize=auto;html=1;exitX=1;exitY=0.25;exitDx=0;exitDy=0;" edge="1" parent="1" source="QktWzPdK9CgGakuP4GfK-1">
          <mxGeometry relative="1" as="geometry">
            <mxPoint x="438" y="170" as="targetPoint" />
          </mxGeometry>
        </mxCell>
        <mxCell id="QktWzPdK9CgGakuP4GfK-7" style="edgeStyle=orthogonalEdgeStyle;rounded=0;orthogonalLoop=1;jettySize=auto;html=1;exitX=1;exitY=0.75;exitDx=0;exitDy=0;" edge="1" parent="1" source="QktWzPdK9CgGakuP4GfK-1">
          <mxGeometry relative="1" as="geometry">
            <mxPoint x="438" y="230" as="targetPoint" />
          </mxGeometry>
        </mxCell>
        <mxCell id="QktWzPdK9CgGakuP4GfK-13" style="edgeStyle=orthogonalEdgeStyle;rounded=0;orthogonalLoop=1;jettySize=auto;html=1;exitX=0.5;exitY=1;exitDx=0;exitDy=0;startArrow=classic;startFill=1;endArrow=none;endFill=0;" edge="1" parent="1" source="QktWzPdK9CgGakuP4GfK-1">
          <mxGeometry relative="1" as="geometry">
            <mxPoint x="238" y="380" as="targetPoint" />
          </mxGeometry>
        </mxCell>
        <mxCell id="QktWzPdK9CgGakuP4GfK-16" style="edgeStyle=orthogonalEdgeStyle;rounded=0;orthogonalLoop=1;jettySize=auto;html=1;exitX=0.75;exitY=0;exitDx=0;exitDy=0;startArrow=classic;startFill=1;endArrow=none;endFill=0;" edge="1" parent="1" source="QktWzPdK9CgGakuP4GfK-1">
          <mxGeometry relative="1" as="geometry">
            <mxPoint x="278" y="20" as="targetPoint" />
          </mxGeometry>
        </mxCell>
        <mxCell id="QktWzPdK9CgGakuP4GfK-17" style="edgeStyle=orthogonalEdgeStyle;rounded=0;orthogonalLoop=1;jettySize=auto;html=1;exitX=0.25;exitY=0;exitDx=0;exitDy=0;startArrow=classic;startFill=1;endArrow=none;endFill=0;" edge="1" parent="1" source="QktWzPdK9CgGakuP4GfK-1">
          <mxGeometry relative="1" as="geometry">
            <mxPoint x="198" y="20" as="targetPoint" />
          </mxGeometry>
        </mxCell>
        <mxCell id="QktWzPdK9CgGakuP4GfK-1" value="Оптимизация метода сжатия страниц памяти" style="rounded=0;whiteSpace=wrap;html=1;fontFamily=Times New Roman;fontSize=16;" vertex="1" parent="1">
          <mxGeometry x="158" y="140" width="160" height="120" as="geometry" />
        </mxCell>
        <mxCell id="QktWzPdK9CgGakuP4GfK-2" value="A0" style="text;html=1;strokeColor=none;fillColor=none;align=center;verticalAlign=middle;whiteSpace=wrap;rounded=0;fontFamily=Times New Roman;fontSize=16;" vertex="1" parent="1">
          <mxGeometry x="268" y="230" width="60" height="30" as="geometry" />
        </mxCell>
        <mxCell id="QktWzPdK9CgGakuP4GfK-5" value="Страница памяти" style="text;html=1;strokeColor=none;fillColor=none;align=center;verticalAlign=middle;whiteSpace=wrap;rounded=0;fontFamily=Times New Roman;fontSize=16;" vertex="1" parent="1">
          <mxGeometry x="38" y="160" width="110" height="30" as="geometry" />
        </mxCell>
        <mxCell id="QktWzPdK9CgGakuP4GfK-8" value="Cжатая страница" style="text;html=1;strokeColor=none;fillColor=none;align=center;verticalAlign=middle;whiteSpace=wrap;rounded=0;fontFamily=Times New Roman;fontSize=16;" vertex="1" parent="1">
          <mxGeometry x="328" y="130" width="110" height="30" as="geometry" />
        </mxCell>
        <mxCell id="QktWzPdK9CgGakuP4GfK-9" value="Несжимаемая страница" style="text;html=1;strokeColor=none;fillColor=none;align=center;verticalAlign=middle;whiteSpace=wrap;rounded=0;fontFamily=Times New Roman;fontSize=16;" vertex="1" parent="1">
          <mxGeometry x="303" y="190" width="160" height="30" as="geometry" />
        </mxCell>
        <mxCell id="QktWzPdK9CgGakuP4GfK-15" value="Операционная система" style="text;html=1;strokeColor=none;fillColor=none;align=center;verticalAlign=middle;whiteSpace=wrap;rounded=0;fontFamily=Times New Roman;fontSize=16;" vertex="1" parent="1">
          <mxGeometry x="238" y="310" width="110" height="30" as="geometry" />
        </mxCell>
        <mxCell id="QktWzPdK9CgGakuP4GfK-18" value="Пороговое значение" style="text;html=1;strokeColor=none;fillColor=none;align=center;verticalAlign=middle;whiteSpace=wrap;rounded=0;fontFamily=Times New Roman;fontSize=16;" vertex="1" parent="1">
          <mxGeometry x="278" y="60" width="90" height="30" as="geometry" />
        </mxCell>
        <mxCell id="QktWzPdK9CgGakuP4GfK-19" value="Метод подсчета информационной энтропии" style="text;html=1;strokeColor=none;fillColor=none;align=center;verticalAlign=middle;whiteSpace=wrap;rounded=0;fontFamily=Times New Roman;fontSize=16;" vertex="1" parent="1">
          <mxGeometry x="88" y="60" width="90" height="30" as="geometry" />
        </mxCell>
      </root>
    </mxGraphModel>
  </diagram>
</mxfile>
